<svg version="1.1" id="Layer_1" xmlns="http://www.w3.org/2000/svg" xmlns:xlink="http://www.w3.org/1999/xlink" x="0px" y="0px"
	 width="100%" viewBox="0 0 512 512" enable-background="new 0 0 512 512" xml:space="preserve">
<path fill="#000000" opacity="1.000000" stroke="none" 
	d="
M287.531342,1.000000 
	C293.027985,3.937043 298.841156,3.460232 304.264374,4.453877 
	C323.106323,7.906108 341.219452,13.541951 358.857483,20.910965 
	C381.111115,30.208345 401.214905,43.041065 420.030151,57.974976 
	C427.596680,63.980675 434.766937,70.550713 440.949127,77.926743 
	C446.761810,84.861961 447.198822,93.480598 443.535034,101.460785 
	C440.098419,108.946213 433.839935,113.103714 424.996857,113.491837 
	C416.985870,113.843452 410.862091,110.926346 405.425140,105.504478 
	C388.931458,89.056435 370.185822,75.643089 349.188904,65.666870 
	C327.965881,55.583248 305.704529,48.702999 282.167297,46.268475 
	C271.928162,45.209412 261.703766,43.877510 251.415329,44.425598 
	C220.109650,46.093304 190.148849,52.925568 162.052185,67.402443 
	C147.668594,74.813629 134.063675,83.361969 121.662018,93.620918 
	C107.166435,105.612022 94.421272,119.409233 83.606430,134.861938 
	C66.554504,159.226486 54.674076,185.940445 48.769409,215.088882 
	C45.407181,231.686523 43.377235,248.579483 44.432018,265.555695 
	C46.789410,303.496765 57.490833,338.876190 78.273682,370.934082 
	C88.877113,387.290070 101.458511,401.845612 116.033043,414.956573 
	C139.182053,435.781036 165.557526,450.509186 195.023834,459.958038 
	C210.541122,464.933899 226.500336,467.460510 242.777328,468.796906 
	C274.363037,471.390167 304.605652,466.032562 333.884857,454.626007 
	C357.482086,445.433044 378.614471,432.174927 397.595490,415.291931 
	C432.964966,383.832001 455.137970,344.770966 465.241760,298.797516 
	C468.118683,285.707336 469.517212,272.285004 469.628662,258.819275 
	C469.740479,245.313248 475.259735,237.930069 487.645905,235.105179 
	C497.797852,232.789825 507.507660,238.326904 512.845093,249.693390 
	C513.000000,260.020905 513.000000,270.041779 512.872437,280.903076 
	C511.647278,291.438141 510.297821,301.092468 508.354919,310.660950 
	C503.972504,332.243622 496.622406,352.837708 486.750580,372.443451 
	C479.214600,387.410065 470.187775,401.485291 459.823547,414.782257 
	C445.442047,433.233185 428.941833,449.443756 410.303680,463.383942 
	C392.050964,477.035858 372.248077,488.123566 350.898712,496.361145 
	C335.869629,502.160004 320.516846,506.626099 304.661346,509.567078 
	C299.432953,510.536865 293.809509,510.042053 289.000000,513.000000 
	C267.979095,513.000000 246.958206,513.000000 225.297806,512.716064 
	C221.357635,510.749634 217.653793,510.972778 214.152206,510.403137 
	C188.262405,506.191284 163.676361,497.952087 140.374893,486.097076 
	C125.889610,478.727417 112.224419,469.953339 99.390709,459.834686 
	C80.892036,445.249512 64.606606,428.610260 50.490005,409.794800 
	C38.491634,393.802612 28.599859,376.574341 20.774569,358.205048 
	C13.422599,340.946869 7.850726,323.132599 4.467940,304.613678 
	C3.516209,299.403442 4.275383,293.716583 1.000000,289.000000 
	C1.000000,270.979095 1.000000,252.958206 1.134214,234.095551 
	C1.760776,228.483292 2.035846,223.678558 2.780877,218.947845 
	C7.468294,189.184250 16.696520,160.990234 31.075989,134.394638 
	C49.009323,101.225983 73.313652,73.604843 103.202080,50.994610 
	C130.533127,30.319004 161.096344,15.937733 194.420319,7.634477 
	C207.435715,4.391468 220.703094,2.593690 234.000000,1.000000 
	C251.687561,1.000000 269.375122,1.000000 287.531342,1.000000 
z"/>
<path fill="#000000" opacity="1.000000" stroke="none" 
	d="
M270.618591,317.626892 
	C268.484955,319.751923 266.410980,321.483948 264.742340,323.544281 
	C255.863907,334.506805 240.786133,336.030762 230.340958,326.029755 
	C211.582108,308.068604 192.450180,290.409332 175.468887,270.712372 
	C167.909500,261.944092 169.180908,249.073318 177.039124,241.163345 
	C185.090439,233.058945 197.527405,232.299271 206.953003,239.726212 
	C218.757278,249.027451 228.312363,260.703552 239.244659,270.935059 
	C241.538239,273.081604 243.827469,275.232758 246.185730,277.444641 
	C249.498856,275.706604 251.601822,273.092987 253.920868,270.778259 
	C281.283356,243.466858 308.708374,216.216980 335.901306,188.737518 
	C344.342743,180.207138 356.426971,180.154633 363.904114,184.021408 
	C376.468903,190.519287 379.153381,208.902771 369.060883,219.036194 
	C339.074463,249.144226 308.995514,279.160126 278.956177,309.215454 
	C276.246735,311.926270 273.561707,314.661469 270.618591,317.626892 
z"/>
</svg>